<?xml version="1.0" standalone="no"?>
<!DOCTYPE svg PUBLIC "-//W3C//DTD SVG 20010904//EN"
 "http://www.w3.org/TR/2001/REC-SVG-20010904/DTD/svg10.dtd">
<svg version="1.0" xmlns="http://www.w3.org/2000/svg"
 width="3822.000000pt" height="3726.000000pt" viewBox="0 0 3822.000000 3726.000000"
 preserveAspectRatio="xMidYMid meet">

<g transform="translate(0.000000,3726.000000) scale(0.100000,-0.100000)"
fill="#000000" stroke="none">
<path d="M20130 37198 c-25 -23 -124 -114 -220 -202 -96 -89 -213 -197 -260
-241 -47 -44 -285 -264 -530 -490 -245 -225 -481 -444 -526 -485 -44 -41 -156
-145 -249 -230 -93 -85 -214 -198 -270 -250 -56 -52 -175 -162 -265 -245 -90
-82 -203 -186 -250 -230 -47 -45 -114 -107 -150 -140 -63 -57 -697 -643 -955
-882 -70 -65 -169 -156 -220 -203 -51 -47 -173 -159 -270 -250 -98 -91 -214
-199 -259 -240 -139 -127 -836 -770 -927 -855 -47 -44 -159 -147 -249 -230
-90 -82 -209 -193 -265 -245 -56 -52 -175 -162 -265 -245 -90 -82 -207 -190
-260 -240 -53 -49 -174 -162 -270 -250 -96 -88 -206 -190 -245 -226 -38 -36
-191 -178 -340 -315 -148 -136 -331 -305 -405 -374 -264 -244 -915 -846 -985
-910 -39 -36 -192 -177 -341 -314 -148 -137 -345 -319 -439 -405 -93 -86 -210
-194 -260 -241 -50 -47 -169 -157 -265 -245 -96 -88 -215 -198 -265 -245 -50
-47 -169 -157 -265 -245 -96 -88 -215 -198 -265 -245 -50 -47 -169 -157 -265
-246 -96 -88 -393 -362 -660 -609 -267 -246 -559 -515 -649 -599 -91 -83 -208
-191 -261 -241 -103 -96 -308 -286 -645 -595 -115 -107 -242 -223 -280 -259
-39 -36 -151 -140 -250 -231 -99 -91 -220 -203 -270 -250 -50 -47 -171 -159
-270 -250 -99 -91 -218 -201 -265 -245 -47 -44 -166 -155 -265 -246 -619 -572
-899 -830 -1045 -963 -90 -83 -210 -194 -265 -246 -56 -52 -175 -162 -265
-245 -90 -82 -209 -193 -265 -245 -234 -219 -330 -305 -341 -305 -7 0 -148
-126 -314 -280 -167 -154 -342 -316 -390 -360 -83 -75 -159 -146 -479 -443
-376 -348 -1307 -1208 -1393 -1285 -87 -79 -97 -91 -85 -107 12 -17 250 -277
427 -465 47 -50 159 -171 250 -270 91 -99 201 -218 245 -265 45 -47 125 -134
180 -195 55 -60 129 -141 166 -180 37 -38 102 -109 145 -157 44 -47 147 -159
229 -248 83 -89 195 -210 250 -270 55 -60 168 -181 250 -270 83 -89 180 -194
216 -233 l67 -72 41 33 c40 32 43 33 61 17 18 -17 26 -11 187 136 92 85 209
192 258 239 50 47 165 153 255 235 90 83 209 193 265 245 56 52 177 165 270
250 93 85 210 193 260 240 50 47 171 159 270 250 98 91 238 219 310 286 199
185 1068 987 1265 1168 96 89 215 199 265 246 50 47 167 155 260 241 162 149
564 520 819 755 64 60 162 150 216 199 54 50 178 164 275 255 97 91 221 206
276 255 54 50 170 158 259 240 89 83 201 186 249 230 48 44 206 190 352 325
330 306 625 578 838 774 91 83 210 194 266 246 56 52 175 163 265 245 90 83
205 188 255 236 49 47 115 107 145 135 54 48 698 642 969 894 74 69 172 159
217 200 45 41 161 149 259 240 98 91 214 199 259 240 45 41 286 264 536 495
250 231 479 442 510 469 30 28 96 88 146 135 49 48 164 154 254 236 90 83 209
193 265 245 56 52 175 163 265 245 90 83 205 188 255 235 50 47 169 157 265
246 222 204 984 908 1070 988 111 103 839 777 920 851 42 39 184 169 315 290
131 121 289 267 352 325 173 159 337 310 498 460 80 74 192 178 249 230 57 52
183 169 281 260 98 91 214 199 259 240 45 41 232 214 415 383 l333 308 87 -93
c106 -113 286 -307 401 -433 47 -51 139 -151 204 -221 228 -246 831 -898 906
-980 99 -108 277 -300 415 -449 61 -66 154 -166 206 -223 94 -103 208 -226
459 -497 74 -80 182 -197 240 -260 58 -62 195 -211 305 -330 110 -119 241
-261 290 -315 50 -54 164 -177 255 -275 91 -97 203 -219 250 -270 47 -51 159
-173 250 -270 91 -97 201 -217 245 -265 44 -48 179 -194 300 -325 221 -238
311 -337 504 -547 57 -62 136 -147 175 -188 40 -41 135 -144 212 -228 76 -84
189 -207 249 -272 136 -147 342 -370 495 -535 311 -336 392 -423 470 -509 47
-51 247 -267 445 -481 405 -438 395 -427 785 -850 157 -170 323 -350 370 -400
47 -50 157 -169 245 -265 88 -96 198 -215 245 -265 47 -49 108 -115 135 -145
26 -30 78 -86 114 -125 37 -38 136 -146 221 -238 314 -342 348 -379 495 -537
83 -89 195 -210 250 -270 55 -60 168 -181 250 -270 83 -89 186 -201 230 -249
44 -48 242 -262 440 -476 198 -214 391 -422 429 -464 38 -42 96 -105 130 -141
34 -36 109 -117 166 -180 57 -63 141 -153 185 -200 44 -47 152 -164 240 -260
88 -95 202 -219 254 -274 l95 -100 -61 -55 c-33 -31 -118 -110 -189 -175 -306
-283 -389 -360 -559 -516 -99 -91 -220 -203 -270 -250 -50 -47 -167 -155 -260
-240 -93 -85 -212 -195 -265 -245 -53 -49 -174 -162 -270 -250 -96 -88 -213
-196 -260 -240 -47 -44 -166 -155 -265 -246 -99 -91 -335 -309 -525 -484 -190
-176 -424 -391 -520 -480 -96 -88 -215 -198 -265 -245 -50 -47 -167 -155 -260
-240 -93 -85 -210 -193 -260 -241 -49 -47 -115 -107 -145 -135 -70 -62 -656
-602 -770 -709 -47 -44 -166 -154 -265 -245 -99 -91 -220 -203 -270 -250 -50
-47 -171 -159 -270 -250 -99 -91 -218 -201 -265 -245 -47 -44 -166 -154 -265
-245 -98 -91 -276 -255 -394 -364 -119 -110 -275 -254 -347 -320 -72 -67 -204
-188 -294 -271 -90 -82 -209 -193 -265 -245 -56 -52 -175 -162 -265 -245 -89
-82 -211 -195 -269 -250 -59 -55 -133 -122 -165 -150 l-58 -49 -42 45 c-22 25
-115 126 -206 224 -91 99 -201 218 -245 265 -44 47 -103 110 -130 140 -27 30
-101 111 -165 180 -64 69 -147 159 -185 200 -90 99 -260 283 -365 395 -47 50
-161 174 -255 275 -93 102 -206 223 -250 270 -44 47 -155 166 -246 265 -91 99
-234 254 -317 344 -84 90 -152 167 -152 171 0 4 46 50 103 101 56 51 140 129
187 174 47 44 160 148 250 230 90 83 209 193 265 245 56 52 175 163 265 245
90 83 205 188 254 236 50 47 116 107 146 135 31 27 231 211 445 409 214 198
486 450 604 559 119 110 301 278 405 375 105 97 251 232 326 301 267 246 766
706 850 785 47 44 162 150 255 235 93 85 212 196 265 245 53 50 172 160 265
245 93 85 212 196 265 245 53 50 174 162 270 250 96 88 213 196 260 240 47 44
190 176 318 294 l232 214 -22 26 c-13 14 -61 67 -108 116 -47 50 -155 167
-241 260 -354 384 -562 610 -728 789 -97 105 -207 224 -246 266 -38 42 -151
163 -250 270 -99 106 -214 230 -255 276 -41 45 -174 188 -295 319 -121 131
-260 282 -310 336 -213 232 -302 329 -369 399 -40 41 -135 144 -212 228 -145
159 -266 291 -494 537 -360 389 -626 677 -720 779 -92 100 -488 528 -690 745
-69 74 -154 167 -190 206 -36 39 -177 192 -314 341 -137 148 -321 348 -410
444 -88 96 -199 215 -246 265 -47 50 -157 169 -245 265 -88 96 -200 217 -250
270 -49 52 -157 169 -240 259 -272 298 -309 337 -429 467 -66 71 -123 130
-127 132 -4 2 -56 -43 -116 -100 -60 -57 -188 -175 -284 -263 -96 -88 -205
-190 -244 -226 -58 -55 -518 -480 -805 -744 -42 -38 -308 -285 -592 -547 -560
-517 -851 -786 -1108 -1022 -90 -83 -207 -191 -260 -241 -53 -49 -172 -160
-265 -245 -93 -85 -212 -195 -265 -245 -53 -49 -174 -162 -270 -250 -96 -88
-213 -196 -260 -240 -47 -44 -166 -154 -265 -246 -99 -91 -396 -365 -660 -608
-264 -244 -556 -514 -650 -600 -93 -86 -210 -194 -260 -241 -50 -47 -171 -159
-270 -250 -99 -91 -243 -223 -320 -295 -78 -71 -222 -204 -320 -295 -99 -91
-218 -201 -265 -245 -47 -44 -166 -154 -265 -245 -99 -91 -218 -201 -265 -245
-47 -44 -168 -156 -270 -250 -102 -93 -223 -206 -270 -250 -102 -96 -819 -757
-905 -835 -33 -30 -98 -90 -145 -135 -47 -44 -160 -147 -250 -230 -90 -82
-209 -193 -265 -245 -56 -52 -177 -165 -270 -250 -93 -85 -205 -189 -250 -230
-44 -41 -193 -178 -330 -304 -138 -127 -284 -262 -325 -300 -41 -39 -160 -150
-265 -246 -104 -96 -228 -211 -275 -255 -47 -44 -166 -154 -265 -245 -99 -91
-218 -201 -265 -245 -47 -44 -281 -260 -520 -480 -239 -220 -476 -438 -526
-485 -49 -47 -164 -152 -254 -235 -90 -82 -209 -193 -265 -245 -55 -52 -175
-162 -265 -245 -90 -82 -205 -188 -254 -235 -50 -47 -120 -111 -155 -143 l-65
-57 40 -43 c23 -23 110 -118 195 -210 212 -232 307 -335 749 -812 63 -68 195
-211 292 -317 201 -218 327 -355 543 -588 83 -89 195 -210 250 -270 55 -60
168 -181 250 -270 83 -89 191 -205 240 -259 83 -91 363 -393 660 -714 66 -71
161 -173 210 -227 50 -54 180 -196 290 -315 110 -119 247 -268 305 -331 114
-123 308 -332 490 -529 63 -68 158 -171 209 -227 52 -57 145 -157 206 -223
173 -186 353 -380 435 -471 41 -45 149 -161 240 -259 91 -97 203 -219 250
-270 47 -51 157 -171 246 -266 172 -186 466 -505 728 -789 89 -96 197 -213
241 -260 45 -47 125 -134 180 -195 55 -60 111 -121 126 -135 14 -14 89 -94
165 -178 134 -147 198 -217 494 -537 74 -80 182 -197 240 -259 199 -216 831
-899 1155 -1249 66 -71 156 -169 200 -217 44 -48 179 -194 300 -325 121 -130
263 -284 315 -341 52 -57 156 -169 230 -249 325 -351 370 -400 459 -497 52
-57 124 -134 160 -173 37 -38 113 -122 171 -185 57 -63 138 -151 179 -195 42
-44 150 -161 241 -260 91 -99 203 -220 250 -270 71 -76 186 -200 455 -493 l41
-44 229 212 c127 117 308 285 404 374 95 89 215 199 266 246 51 47 173 159
270 250 98 91 214 199 259 240 45 41 287 264 536 495 250 231 499 461 555 511
55 50 111 103 124 117 l24 26 -38 43 c-45 51 -335 365 -450 488 -44 47 -154
166 -245 265 -91 99 -203 220 -250 270 -47 50 -157 169 -246 265 -88 96 -273
296 -410 444 -137 148 -283 307 -324 352 -41 45 -126 137 -189 205 -63 68
-184 200 -270 294 -86 93 -196 212 -246 265 -49 53 -162 174 -250 270 -88 96
-200 217 -250 270 -49 53 -160 172 -246 265 -274 298 -548 595 -728 789 -97
105 -207 224 -246 266 -300 325 -664 719 -730 790 -44 47 -152 164 -240 260
-88 96 -196 213 -240 260 -45 47 -125 135 -180 195 -55 61 -109 119 -121 130
-12 11 -70 74 -130 140 -110 122 -262 287 -414 450 -47 50 -159 171 -250 270
-91 99 -203 220 -250 270 -47 50 -157 169 -246 265 -348 379 -597 648 -1034
1119 -113 122 -289 313 -540 586 -52 57 -162 176 -245 265 -154 165 -288 311
-454 492 -52 57 -145 157 -206 223 -62 66 -147 159 -191 208 -43 48 -82 87
-86 87 -21 0 4 27 159 170 92 85 208 193 258 240 50 47 169 157 265 246 96 89
393 363 660 609 267 246 561 518 655 604 93 86 212 197 265 246 53 50 172 160
265 245 93 85 208 191 255 235 47 44 193 179 325 300 132 121 276 254 320 295
44 41 163 152 265 245 102 94 223 206 270 250 47 44 168 157 270 250 102 94
223 206 270 250 47 44 164 152 260 241 96 89 272 251 390 360 119 109 294 271
390 359 96 88 218 201 270 250 53 50 170 158 260 240 90 83 209 193 265 245
56 52 175 163 265 245 90 83 202 186 249 230 48 44 257 237 466 430 209 192
416 384 460 425 44 41 166 154 270 250 104 96 226 209 270 250 44 41 161 150
260 241 99 91 302 279 452 417 149 139 275 252 280 251 4 0 43 -40 86 -87 43
-48 130 -144 195 -214 64 -69 166 -179 226 -245 132 -142 772 -835 942 -1018
162 -174 481 -520 678 -735 89 -96 199 -215 246 -263 l85 -88 -45 -41 c-91
-82 -366 -336 -465 -428 -56 -52 -177 -165 -270 -250 -93 -85 -210 -193 -260
-240 -50 -47 -169 -157 -265 -246 -187 -171 -629 -580 -925 -854 -171 -159
-546 -504 -925 -854 -96 -89 -213 -197 -260 -241 -47 -44 -191 -177 -320 -295
-129 -118 -276 -253 -325 -300 -50 -47 -169 -157 -265 -245 -96 -88 -215 -198
-265 -245 -50 -47 -169 -157 -265 -245 -96 -88 -215 -198 -265 -245 -50 -47
-171 -159 -270 -250 -99 -91 -213 -197 -255 -236 -41 -38 -191 -177 -332 -308
-142 -131 -258 -241 -258 -245 0 -4 51 -61 113 -126 62 -66 139 -150 172 -186
64 -70 698 -755 905 -978 69 -74 157 -169 195 -211 39 -42 169 -184 290 -315
121 -130 263 -284 315 -341 52 -57 156 -169 230 -249 322 -347 370 -400 459
-497 52 -57 145 -157 206 -223 160 -172 327 -353 425 -460 47 -51 159 -173
250 -270 91 -97 203 -219 250 -270 47 -51 159 -173 250 -270 91 -98 226 -244
300 -325 74 -81 209 -227 300 -325 183 -197 272 -293 499 -542 85 -92 185
-199 221 -238 37 -38 89 -95 116 -125 26 -30 85 -93 129 -140 44 -47 154 -166
245 -265 91 -99 203 -220 250 -270 47 -50 157 -169 246 -265 89 -96 271 -294
405 -439 134 -145 280 -303 324 -351 272 -297 398 -430 406 -428 7 3 129 114
708 648 69 63 166 153 216 200 50 47 167 155 260 240 93 85 212 196 265 245
53 50 174 162 270 250 96 88 215 198 265 245 50 47 169 157 265 246 96 89 393
363 660 609 267 246 559 516 650 599 90 83 207 192 260 241 53 50 174 162 270
250 96 88 213 196 260 240 47 44 193 179 325 300 132 121 276 254 320 295 44
41 164 152 265 245 102 94 223 206 270 250 47 44 168 157 270 250 102 94 223
206 270 250 47 44 164 152 260 241 96 88 272 250 390 360 119 109 292 269 385
354 93 85 212 196 265 245 53 50 170 158 260 240 90 83 209 193 265 245 56 52
177 165 270 250 93 85 205 189 249 230 45 41 254 235 466 430 212 195 421 389
465 430 44 41 163 152 265 245 102 94 223 206 270 250 47 44 166 155 265 246
99 91 338 311 530 489 193 177 424 391 515 474 90 83 207 192 260 241 53 50
170 158 260 240 90 83 209 193 265 245 55 52 177 165 270 250 93 85 208 191
255 235 47 44 144 134 216 200 71 66 360 333 642 594 l513 474 -28 31 c-15 17
-66 72 -113 121 -126 134 -287 309 -412 448 -61 67 -122 133 -137 147 -14 14
-89 94 -166 179 -193 210 -314 342 -490 531 -82 89 -190 205 -240 259 -49 54
-144 157 -209 227 -66 71 -280 302 -475 514 -196 211 -412 445 -481 519 -69
74 -177 192 -240 261 -133 146 -298 325 -420 455 -47 50 -157 169 -245 265
-88 96 -200 217 -250 270 -49 53 -160 172 -246 265 -86 94 -212 230 -280 304
-68 74 -158 171 -199 217 -41 45 -149 161 -240 259 -91 97 -203 219 -250 270
-47 51 -159 173 -250 270 -91 98 -201 217 -245 265 -44 48 -181 196 -305 330
-124 134 -261 282 -305 330 -146 160 -307 334 -374 405 -37 39 -109 117 -161
175 -52 58 -133 146 -180 195 -47 50 -157 169 -245 265 -88 96 -200 217 -250
270 -49 53 -160 172 -246 265 -337 366 -560 608 -724 785 -94 102 -225 243
-291 314 -65 71 -153 165 -194 210 -41 46 -156 170 -255 276 -99 106 -241 260
-315 341 -74 81 -202 220 -285 309 -173 186 -290 313 -499 542 -83 90 -164
177 -180 193 -17 17 -94 99 -171 183 -184 202 -307 336 -490 532 -82 89 -190
205 -240 259 -49 54 -144 157 -209 227 -66 71 -280 302 -475 514 -196 211
-412 445 -481 519 -69 74 -154 167 -189 205 -36 39 -117 127 -180 196 -64 68
-138 149 -166 180 -27 30 -86 93 -130 140 -44 47 -152 164 -240 260 -88 96
-200 217 -250 270 -49 53 -160 172 -246 265 -86 94 -212 230 -280 304 -68 74
-158 171 -199 217 -41 45 -149 161 -240 259 -91 97 -203 219 -250 270 -47 51
-159 173 -250 270 -91 97 -201 217 -245 265 -44 48 -181 196 -305 330 -124
134 -261 282 -305 330 -44 48 -154 168 -245 265 -91 98 -230 249 -310 336
-134 146 -219 238 -530 574 -63 68 -174 189 -247 267 -73 79 -165 178 -205
221 l-73 77 -45 -42z"/>
</g>
</svg>
